<svg viewBox="0 0 722 276" id="logo-small">
        <g fill="#ECE2CE" fill-rule="nonzero">
            <path d="M53.58 0v78.6h17.14L69.36 0h55.75l-3.53 181.41H71.53l-.81-59.83H53.58v59.83H2.72L0 0zM191.47 129.46l-9-47.59-7.88 47.59h16.88zm-17.64-90.29L167.03 0h57.66l25.3 181.41h-47.91l-5.17-22.57h-27.2l-4.35 22.57h-30.19l38.66-142.24zM313.59 102.54c16-12.24 20.4-19.31 20.4-32.37 0-14.68-5.17-21.76-19.31-26.65l-1.09 59.02zM263.54 0h92.2c18.5 23.12 24.48 38.35 24.48 62.83 0 26.11-9.25 48.14-26.38 62-11.42 9.25-21.21 13.06-41.07 15.51l-.55 41.06h-48.14L263.54 0zM445.77 0l-1.09 96.83c12.51-21.49 20.15-50.86 20.15-76.71 0-3.53 0-5.43-.82-20.12h46.51c.82 29.1-10.88 68.27-26.65 91.66l27.74 89.75h-47.6l-18.5-49.23-1.08 49.23h-48.71L393 0M528.45.54h53.04l-4.71 130.37-1.82 50.5h-48.14zM603.24 0h43.25l28.01 69.09.82-69.09h46.24l-1.36 181.41h-36.99l-30.19-62.28v62.28h-47.33zM421.5 214.41h300.06v2.56H421.5zM421.5 256.72h300.06v2.56H421.5zM0 214.41h300.19v2.56H0zM0 256.72h300.33v2.56H0zM652.9 230.88h-6.07v10.71h6.1v-2.33h-3.31v-1.84h3.12v-2.36h-3.12v-1.8h3.31l-.03-2.38zm-13.38 6.87h2.31c-.028521.283615-.120824.557106-.27.8-.123395.212988-.294555.394418-.5.53-.210376.140152-.44402.241736-.69.3-.262317.060671-.530759.09087-.8.09-.418452.01167-.834521-.066769-1.22-.23-.338356-.152513-.638847-.377882-.88-.66-.241291-.29485-.42146-.634792-.53-1-.122759-.408616-.183436-.833356-.18-1.26-.006539-.465158.064432-.928158.21-1.37.127653-.36311.317109-.701423.56-1 .242101-.283635.542171-.512097.88-.67.358179-.160453.747628-.239026 1.14-.23.474566-.009792.941221.122543 1.34.38.450218.312277.798118.750631 1 1.26l2.64-1.09c-.424026-.934844-1.121317-1.719296-2-2.25-.900377-.49245-1.91396-.740674-2.94-.72-.801975-.010171-1.59885.128858-2.35.41-.670708.259418-1.282724.650428-1.8 1.15-.504676.509373-.896501 1.119256-1.15 1.79-.294418.724591-.450444 1.497937-.46 2.28-.007533.788743.131492 1.572026.41 2.31.262016.666422.652794 1.274677 1.15 1.79.503152.505253 1.105926.900292 1.77 1.16.727556.278466 1.501011.417553 2.28.41.584376.001329 1.16627-.076033 1.73-.23.536593-.143404 1.048867-.365838 1.52-.66.458696-.288888.864557-.654163 1.2-1.08.347438-.446823.620916-.94651.81-1.48.142205-.41792.236149-.850732.28-1.29.050567-.51842.073932-1.039134.07-1.56h-5.52l-.01 2.12zm-12.62-6.87v10.71h6.12v-2.33h-3.34v-8.35l-2.78-.03zm-2 0h-6.07v10.71h6.1v-2.33h-3.31v-1.84h3.12v-2.36h-3.12v-1.8h3.31l-.03-2.38zm-15.93 10.71h4.48c.516817.004769 1.031775-.062546 1.53-.2.426036-.112389.822086-.317242 1.16-.6.321688-.270677.575183-.613238.74-1 .179161-.420138.267753-.873322.26-1.33.000383-.306672-.036555-.612252-.11-.91-.149733-.575577-.53435-1.06179-1.06-1.34-.31293-.168356-.650383-.286465-1-.35.369803-.217605.676541-.527789.89-.9.205037-.416146.304626-.876315.29-1.34.041496-.746159-.238843-1.474313-.77-2-.62961-.51217-1.430312-.765964-2.24-.71h-4.15l-.02 10.68zm2.78-8.58h.52c.87 0 1.3.35 1.3 1s-.43 1-1.3 1h-.52v-2zm0 4.15h.62c.514747-.037517 1.030644.055345 1.5.27.308402.178899.498228.508466.498228.865s-.189826.686101-.498228.865c-.469356.214655-.985253.307517-1.5.27h-.62v-2.27zm-9.61-6.28h-6.1v10.71h6.1v-2.33h-3.31v-1.84h3.12v-2.36h-3.12v-1.8h3.31v-2.38zm-7.31 2.38v-2.36h-7.36v2.36h2.28v8.35h2.79v-8.35h2.29zm-10.9 4c.679633-.118113 1.2958-.472232 1.74-1 .418019-.580352.626093-1.285685.59-2 .004212-.436423-.070314-.870028-.22-1.28-.147555-.373477-.368589-.713529-.65-1-.314664-.316112-.693063-.56156-1.11-.72-.499571-.181923-1.028431-.270067-1.56-.26h-4.33v10.71h2.79v-4.12l2.65 4.12h3.47l-3.37-4.45zm-2.75-4.18h.52c.447353-.027818.891085.095441 1.26.35.308767.235573.474924.613203.44 1 .027522.38555-.137153.759812-.44 1-.372051.246895-.814251.366219-1.26.34h-.52v-2.69zm-16 5.44c.289259.671217.707116 1.279318 1.23 1.79.533209.52799 1.169885.939957 1.87 1.21.762963.290824 1.573515.436655 2.39.43.816326.004802 1.626539-.140969 2.39-.43.701879-.272375 1.341379-.683968 1.88-1.21.52594-.508102.944244-1.116855 1.23-1.79.586201-1.425418.586201-3.024582 0-4.45-.288121-.674785-.706039-1.286372-1.23-1.8-.539572-.51994-1.179183-.9248-1.88-1.19-.760132-.301879-1.572196-.45138-2.39-.44-.817958-.013226-1.63038.136342-2.39.44-.699043.262832-1.335839.668066-1.87 1.19-.520845.516231-.938321 1.127172-1.23 1.8-.586201 1.425418-.586201 3.024582 0 4.45zm2.72-3.4c.154432-.352089.375102-.671212.65-.94.881555-.823344 2.158741-1.064763 3.28-.62.371705.137173.711849.348062 1 .62.281512.265297.506071.585124.66.94.319571.75074.319571 1.59926 0 2.35-.153929.354876-.378488.674703-.66.94-.288151.271938-.628295.482827-1 .62-1.120249.455087-2.403153.212587-3.28-.62-.274898-.268788-.495568-.587911-.65-.94-.319571-.75074-.319571-1.59926 0-2.35zm-4.32-4.18h-6.14v10.71h2.79v-4.2h3.05v-2.36h-3.05v-1.83h3.35v-2.32zm-13 0h-6.1v10.71h6.1v-2.39h-3.31v-1.84h3.12v-2.36h-3.12v-1.8h3.31v-2.32zm-17.26 10.710036l4.12-.000036c.71349.002707 1.419297-.14732 2.07-.44 1.262565-.578343 2.261877-1.609775 2.8-2.89.258467-.635416.394194-1.314052.4-2-.003956-.687127-.143276-1.36674-.41-2-.270638-.633386-.653449-1.212685-1.13-1.71-.481994-.491524-1.051828-.888373-1.68-1.17-.643583-.292859-1.342924-.442961-2.05-.44l-4.12-.000043v10.650079zm2.81-8.390036h.64c.43671-.007879.870982.066761 1.28.22.371811.141611.71174.355767 1 .63.265291.272311.472782.595453.61.95.280301.775447.280301 1.624553 0 2.4-.135207.347948-.33544.666965-.59.94-.28528.275647-.626249.487048-1 .62-.410001.163186-.848865.241433-1.29.23h-.64l-.01-5.99zm-12.94 8.35v-6.55l5.14 6.55h2.78v-10.73h-2.78v6.55l-5.14-6.55h-2.78v10.71l2.78.02zm-16-3.13c.584198 1.375161 1.698177 2.456693 3.09 3 1.541806.573064 3.238194.573064 4.78 0 .704941-.272168 1.347754-.683705 1.89-1.21.522974-.508493.937926-1.117318 1.22-1.79.586201-1.425418.586201-3.024582 0-4.45-.57084-1.391374-1.69898-2.479612-3.11-3-1.539313-.586762-3.240687-.586762-4.78 0-.697758.2654-1.334058.670318-1.87 1.19-1.069285 1.055474-1.667749 2.497557-1.66 4-.00401.762049.145637 1.517088.44 2.22v.04zm2.72-3.44c.154432-.352089.375102-.671212.65-.94.288151-.271938.628295-.482827 1-.62 1.120764-.449881 2.400773-.207928 3.28.62.579015.55116.90675 1.315603.90675 2.115 0 .799397-.327735 1.56384-.90675 2.115-.881555.823344-2.158741 1.064763-3.28.62-.371705-.137173-.711849-.348062-1-.62-.274898-.268788-.495568-.587911-.65-.94-.33286-.747973-.33286-1.602027 0-2.35zm-10-4.18v10.71h6.12v-2.31h-3.33v-8.35l-2.79-.05zm-9.83 10.71h4.47c.520107.00479 1.03837-.062517 1.54-.2.424664-.115928.81999-.320407 1.16-.6.318785-.273391.571739-.615221.74-1 .179161-.420138.267753-.873322.26-1.33.000383-.306672-.036555-.612252-.11-.91-.077431-.27816-.206324-.539338-.38-.77-.186584-.233253-.417745-.42702-.68-.57-.31293-.168356-.650383-.286465-1-.35.367591-.220434.673687-.529969.89-.9.205037-.416146.304626-.876315.29-1.34.036379-.745345-.243185-1.471485-.77-2-.62961-.51217-1.430312-.765964-2.24-.71h-4.15l-.02 10.68zm2.78-8.58h.52c.87 0 1.3.35 1.3 1s-.43 1-1.3 1h-.55l.03-2zm0 4.15h.62c.514747-.037517 1.030644.055345 1.5.27.308402.178899.498228.508466.498228.865s-.189826.686101-.498228.865c-.469356.214655-.985253.307517-1.5.27h-.65l.03-2.27zM247.22 242.410058l4.41-.000058c.765063.003567 1.522024-.156691 2.22-.47.669677-.309676 1.276493-.740211 1.79-1.27.512305-.528482.919527-1.149496 1.2-1.83.586179-1.390758.586179-2.959242 0-4.35-.569347-1.372522-1.642933-2.474737-3-3.08-.689421-.317829-1.440891-.47837-2.2-.47h-4.41l-.01 11.470058zm3-8.950058h.69c.467694-.006842.932483.074581 1.37.24.373065.157417.712517.384849 1 .67.281411.286471.502445.626523.65 1 .300159.830374.300159 1.739626 0 2.57-.286552.775774-.89595 1.388822-1.67 1.68-.440523.167136-.908915.248595-1.38.24h-.69l.03-6.4zm-13.85 8.95v-7l5.5 7h3v-11.47h-3v7l-5.5-7h-3v11.47h3zm-17.1-3.36c.300158.723183.746095 1.37677 1.31 1.92.572816.560519 1.253135.999325 2 1.29.815248.319557 1.684407.479129 2.56.47.875423.007155 1.74421-.152349 2.56-.47.746115-.292141 1.426158-.730769 2-1.29.566851-.542844 1.016138-1.196352 1.32-1.92.62677-1.524769.62677-3.235231 0-4.76-.303862-.723648-.753149-1.377156-1.32-1.92-.573842-.559231-1.253885-.997859-2-1.29-.81639-.314472-1.685201-.470586-2.56-.46-.874941-.012315-1.744078.143858-2.56.46-.746865.290675-1.427184.729481-2 1.29-.563905.54323-1.009842 1.196817-1.31 1.92-.62677 1.524769-.62677 3.235231 0 4.76zm2.9-3.64c.171854-.372397.408919-.711061.7-1 .291099-.278136.629816-.50169 1-.66.798268-.30644 1.681732-.30644 2.48 0 .371356.156123.710451.379926 1 .66.300294.283252.541592.623108.71 1 .347032.804157.347032 1.715843 0 2.52-.16528.378668-.406997.719115-.71 1-.948756.870652-2.3098 1.126575-3.51.66-.370184-.15831-.708901-.381864-1-.66-.293132-.287205-.530477-.626268-.7-1-.333355-.806927-.333355-1.713073 0-2.52h.03zm-10.75-4.47v11.47h6.55v-2.53h-3.57v-8.94h-2.98zm-10.52 11.470074l4.79-.000074c.554204.002761 1.106117-.071277 1.64-.22.454797-.121036.877881-.339402 1.24-.64.335193-.269674.605229-.611492.79-1 .196193-.450639.291747-.938645.28-1.43a3.85002061 3.85002061 0 0 0-.12-1c-.157877-.620302-.572473-1.144004-1.14-1.44-.336727-.182972-.701812-.308047-1.08-.37.397327-.246172.724514-.590579.95-1 .221398-.446779.327943-.941696.31-1.44.056487-.81427-.242608-1.613072-.82-2.19-.673782-.550173-1.532347-.822052-2.4-.76h-4.44v11.490074zm3-9.190074h.54c.94 0 1.4.37 1.4 1.11 0 .74-.46 1.11-1.4 1.11h-.54v-2.22zm0 4.44h.65c.552432-.03871 1.105796.060964 1.61.29.326236.192227.515915.552231.49.93.025915.377769-.163764.737773-.49.93-.505325.224805-1.058448.321-1.61.28h-.65v-2.43zm-16 .64h2.45c-.039872.299637-.138417.588476-.29.85-.136892.22664-.321085.421066-.54.57-.223182.154366-.474664.263115-.74.32-.278009.068899-.563591.102496-.85.1-.449479.01081-.896091-.074421-1.31-.25-.362459-.163439-.683668-.406054-.94-.71-.263496-.316137-.457685-.684073-.57-1.08-.130922-.437872-.194977-.893002-.19-1.35-.008855-.495547.065511-.989067.22-1.46.131746-.408091.338634-.787951.61-1.12.251429-.307378.569441-.553581.93-.72.384703-.167752.800323-.25292 1.22-.25.509585-.005735 1.009861.136705 1.44.41.460819.344141.808902.817534 1 1.36l2.83-1.17c-.451378-1.002444-1.197973-1.843236-2.14-2.41-.963273-.53112-2.050335-.796847-3.15-.77-.857072-.014763-1.709054.134589-2.51.44-.719433.270303-1.373698.689442-1.92 1.23-.546595.539502-.969655 1.191152-1.24 1.91-.294776.78273-.440615 1.613671-.43 2.45-.009048.846854.140178 1.687946.44 2.48.276702.713251.695129 1.363004 1.23 1.91.539701.544035 1.186766.969736 1.9 1.25.778103.299959 1.606133.449276 2.44.44.625063-.000362 1.247261-.084443 1.85-.25.570615-.154894 1.11614-.390614 1.62-.7 1.012123-.641553 1.771607-1.612985 2.15-2.75.16166-.444927.265836-.908679.31-1.38.05-.5.08-1 .08-1.66h-5.87l-.03 2.31zm-11 4.11h3v-11.47h-3v11.47zm-1.32-8.95v-2.52h-7.88v2.52h2.45v8.95h3v-8.95h2.43zm-16.49-2.52h-3v11.47h3v-4.74h4.31v4.74h3v-11.47h-3v4.42h-4.31v-4.42zm-5.26.32c-.453114-.189287-.921457-.339826-1.4-.45-.440828-.091572-.889764-.138476-1.34-.14-.788793-.002644-1.570367.150272-2.3.45-.715065.283538-1.367429.704857-1.92 1.24-.562684.540807-1.014455 1.186195-1.33 1.9-.659611 1.556328-.659611 3.313672 0 4.87.319116.720634.770205 1.375222 1.33 1.93.548717.547365 1.201574.979203 1.92 1.27 1.087878.45148 2.286131.566428 3.44.33.435538-.085866.863555-.206246 1.28-.36l.31-.1v-3.53c-.647076.754144-1.586418 1.194688-2.58 1.21-.415604.004683-.827647-.077045-1.21-.24-.376524-.150936-.717195-.379185-1-.67-.282738-.287403-.506897-.627038-.66-1-.159511-.404068-.237672-.835655-.23-1.27-.006886-.424543.071319-.846167.23-1.24.147555-.373477.368589-.713529.65-1 .284128-.286759.624629-.511489 1-.66.392892-.162894.814703-.244534 1.24-.24 1.003717-.004735 1.951501.461752 2.56 1.26l.01-3.56zm-12.33 11.2h3.18l-4.36-11.47h-3.29l-4.36 11.47h3.16l.68-2h4.32l.67 2zm-4.15-4.26l1.34-3.82 1.34 3.82h-2.68zm-8.41-.44c.730791-.14094 1.388997-.53374 1.86-1.11.443219-.615325.665253-1.362487.63-2.12.000853-.466346-.076903-.9295-.23-1.37-.318438-.875685-1.006017-1.566921-1.88-1.89-.533933-.19817-1.10063-.293186-1.67-.28h-4.64v11.47h3v-4.41l2.84 4.41h3.71l-3.62-4.7zm-3-4.48h.56c.478992-.033874.955212.096645 1.35.37.309752.238171.487917.609347.48 1 .019195.407025-.15963.798205-.48 1.05-.398006.265549-.872618.392112-1.35.36h-.56v-2.78zm-12-2.29h-3v11.47h3v-5l3.88 5h3.86l-5-6 4.55-5.43h-3.68l-3.64 4.73.03-4.77zm-17.84 0h-3v11.47h3v-4.74h4.3v4.74h3v-11.52h-3v4.42h-4.3v-4.37zm-5.36.27a8.59997429 8.59997429 0 0 0-1.39-.45c-.4408281-.091572-.8897639-.138476-1.34-.14-1.5739447.003183-3.0871691.607757-4.23 1.69-.5569836.543492-1.0050137 1.188384-1.32 1.9-.3335729.766161-.5005922 1.59444-.49 2.43-.0123154.839975.1582983 1.67257.5 2.44.3155068.722647.767039 1.377878 1.33 1.93.5487172.547365 1.201574.979203 1.92 1.27 1.087878.45148 2.2861308.566428 3.44.33.4355383-.085866.8635551-.206246 1.28-.36l.3-.1v-3.53c-.642367.754714-1.5790282 1.195711-2.57 1.21-.4156038.004683-.8276466-.077045-1.21-.24-.377964-.148196-.7191809-.376811-1-.67-.2827377-.287403-.506897-.627038-.66-1-.1629297-.403375-.2444939-.834985-.24-1.27-.0034426-.425198.0781565-.846793.24-1.24.1475548-.373477.3685889-.713529.65-1 .2841282-.286759.6246286-.511489 1-.66 1.344572-.555301 2.8944181-.146371 3.79 1v-3.54zm-10.6.33c-.5636654-.300224-1.1612525-.531872-1.78-.69-.5811532-.151973-1.1793051-.229263-1.78-.23-.5616223-.008055-1.1202377.083355-1.65.27-.4661557.165956-.8920852.428328-1.25.77-.342309.334297-.6113403.736141-.79 1.18-.1884178.494896-.2833585 1.020461-.28 1.55-.0172552.48433.0750384.966307.27 1.41.1670487.351867.4054257.665163.7.92.2987731.24758.6367419.443601 1 .58.37.15.74.28 1.13.41l.83.3c.1966863.07595.3844707.173195.56.29.259054.186305.4059066.491307.39.81-.0024704.293931-.1341345.571888-.36.76-.3056941.241896-.6913111.359723-1.08.33-.4486736-.006169-.8912429-.104896-1.3-.29-.4835329-.222104-.9290068-.519086-1.32-.88l-1.28 2.4c1.1643255.841468 2.5634389 1.29618 4 1.3.6384211.008381 1.2737803-.089627 1.88-.29.5164629-.163257.9932563-.432304 1.4-.79.3789181-.335291.67645-.75252.87-1.22.2009626-.509367.302787-1.05243.3-1.6.0335036-.76516-.2076798-1.517085-.68-2.12-.5797361-.622468-1.3203918-1.072399-2.14-1.3l-.74-.23a4.70998248 4.70998248 0 0 1-.67-.25c-.1777484-.085929-.3399628-.200831-.48-.34-.1224619-.137082-.1869862-.316316-.18-.5-.0080718-.287519.1315301-.559176.37-.72.2750322-.191098.6054781-.286014.94-.27.3226586.002079.6418639.066599.94.19.3638303.135188.7019936.331323 1 .58l1.18-2.33zm-12.87 10.87h3v-11.52h-3v11.52zm-7.8-4.11h2.45c-.0398717.299637-.1384168.588476-.29.85-.1368923.22664-.3210855.421066-.54.57-.223182.154366-.4746642.263115-.74.32-.2780092.068899-.5635914.102496-.85.1-.4494794.01081-.8960909-.074421-1.31-.25-.3624591-.163439-.6836683-.406054-.94-.71-.2599536-.318497-.4537373-.685666-.57-1.08-.1309221-.437872-.1949775-.893002-.19-1.35-.008855-.495547.065511-.989067.22-1.46.1317463-.408091.3386345-.787951.61-1.12.2552591-.307575.5765515-.553672.94-.72.3810716-.168101.7935116-.253316 1.21-.25.5097402-.006897 1.0103413.135635 1.44.41.4608192.344141.8089023.817534 1 1.36l2.83-1.17c-.448093-1.004567-1.1954771-1.846247-2.14-2.41-.9627427-.532478-2.0501793-.798296-3.15-.77-.857072-.014763-1.7090541.134589-2.51.44-.7194333.270303-1.3736985.689442-1.92 1.23-.5465945.539502-.9696551 1.191152-1.24 1.91-.2899266.784048-.4356062 1.614083-.43 2.45-.0090481.846854.1401779 1.687946.44 2.48.2767023.713251.6951293 1.363004 1.23 1.91.5397007.544035 1.186766.969736 1.9 1.25.7781033.299959 1.6061332.449276 2.44.44.6250627-.000362 1.247261-.084443 1.85-.25.5731078-.156782 1.1216767-.392363 1.63-.7.490735-.309477.9238643-.702 1.28-1.16.3753184-.478647.6692512-1.015834.87-1.59.1539757-.446586.254673-.909794.3-1.38 0-.5.08-1 .08-1.66h-5.92l.02 2.31zm-13.51-7.36v11.47h6.56v-2.53h-3.57v-8.94h-2.99zm-2.14 0h-6.56v11.47h6.57v-2.53h-3.55v-2h3.35v-2.52h-3.35v-1.95h3.55l-.01-2.47zm-17 11.47h4.71c.5542702.003804 1.1063282-.070253 1.64-.22.4547966-.121036.8778807-.339402 1.24-.64.3351928-.269674.6052293-.611492.79-1 .1961934-.450639.291747-.938645.28-1.43.0039613-.33715-.0363838-.673359-.12-1-.079907-.296309-.2156727-.574628-.4-.82-.2007361-.252137-.4486925-.46273-.73-.62-.3403495-.182814-.7086918-.307848-1.09-.37.418073-.236188.7638121-.581927 1-1 .221398-.446779.3279427-.941696.31-1.44.0564867-.81427-.242608-1.613072-.82-2.19-.6737818-.550173-1.5323472-.822052-2.4-.76h-4.49l.08 11.49zm3-9.19h.55c.93 0 1.4.37 1.4 1.11 0 .74-.47 1.11-1.4 1.11h-.55v-2.22zm0 4.44h.65c.5555779-.037046 1.1117756.06252 1.62.29.3223947.194847.5079374.554336.48.93.0279374.375664-.1576053.735153-.48.93-.5093171.223279-1.0652862.319373-1.62.28h-.65v-2.43zM412.28 218.26c-.56-.37-1.39-.88-2.36-1.46-4.35-2.63-13-6.62-12.73-10.87l-6.91-5.7-.07.08c-1 1.19-2.34 2.7-3.29 3.78-.95 1.08-2 2.27-3.06 3.5l-.07.07.08.06c.68.51 1.26 1.07 1 1.65-3.37 5.25-13.1 14.2-23.73 23.82l-.31.28-.31-.28c-10.61-9.71-20.34-18.66-23.69-23.93-.23-.58.35-1.14 1-1.65l.08-.06-.06-.07c-1.02-1.22-2.02-2.36-3.02-3.48s-2.27-2.59-3.3-3.78l-.07-.08-6.9 5.7c.3 4.25-8.37 8.24-12.73 10.87-1 .58-1.79 1.09-2.35 1.46h-.07v.08c2.94 4.92 8.45 10.46 12.85 11h.08v-.09c.600147-3.102223 1.487295-6.14196 2.65-9.08 1.78-4.27 3.76-6.32 5.89-6.1 4.88 5.11 15 14.7 24.85 23.42l.22.2c-13.69 12.42-30.56 28.22-33.24 34.82-.34.85-.41 1.3-.26 1.62.15.32.71.55 1.56.81.2 0 .4.12.63.19.725012.244213 1.467017.434728 2.22.57 1.17.18 2.27.06 2.64-1 1.85295-4.122937 4.365938-7.916063 7.44-11.23 2.7-2.83 8.88-8.31 16.3-14.83l4-3.46 3.64-3.21 3.63 3.21 4 3.46c7.42 6.52 13.6 12 16.31 14.83 3.070563 3.316688 5.583153 7.109212 7.44 11.23.37 1 1.47 1.16 2.63 1a15.25001289 15.25001289 0 0 0 2.22-.57l.63-.19c.86-.26 1.38-.41 1.57-.81.19-.4.08-.77-.27-1.62-2.67-6.6-19.55-22.4-33.24-34.82l.23-.2c9.86-8.72 20-18.31 24.84-23.42 2.13-.22 4.12 1.83 5.9 6.1 1.162705 2.93804 2.049853 5.977777 2.65 9.08v.09h.09c4.39-.58 9.9-6.12 12.84-11v-.08l-.07.09z"></path>
        </g>
    </svg>